<svg xmlns:mydata="http://www.w3.org/2000/svg" mydata:contrastcolor="ffffff" mydata:template="Contrast" mydata:presentation="2.5" mydata:layouttype="undefined" mydata:specialfontid="undefined" mydata:id1="096" mydata:id2="052" mydata:companyname="YARD" mydata:companytagline="Spreading Joy, Creating Memory" version="1.1"
    xmlns="http://www.w3.org/2000/svg"
    xmlns:xlink="http://www.w3.org/1999/xlink" style="height: 147px;" viewBox="0 50 550 370">
    <defs>
        <linearGradient x1="154.94432" y1="235" x2="395.05568" y2="235" gradientUnits="userSpaceOnUse" id="color-1834394697">
            <stop offset="0" stop-color="#2193b0"></stop>
            <stop offset="1" stop-color="#6dd5ed"></stop>
        </linearGradient>
    </defs>
    <g fill="url(#color-1834394697)" fill-rule="none" stroke="none" stroke-width="1" stroke-linecap="butt" stroke-linejoin="miter" stroke-miterlimit="10" stroke-dasharray="" stroke-dashoffset="0" font-family="none" font-weight="none" font-size="none" text-anchor="none" style="mix-blend-mode: normal">
        <g data-paper-data="{&quot;isGlobalGroup&quot;:true,&quot;bounds&quot;:{&quot;x&quot;:154.944323573435,&quot;y&quot;:115,&quot;width&quot;:240.11135285312994,&quot;height&quot;:240}}">
            <g data-paper-data="{&quot;isSecondaryText&quot;:true}" fill-rule="nonzero" id="element-id-48586">
                <path d="M173.76017,347.7874h1.36774c-0.12792,-1.51533 -1.03318,-2.01717 -2.40092,-2.01717c-1.55469,0 -2.4206,0.73799 -2.4206,2.15492c0,1.56453 0.90526,1.98765 1.76133,2.09588c0.80687,0.10824 1.86957,0.10824 1.86957,1.00366c0,0.85607 -0.37391,1.20046 -1.19062,1.20046c-0.86591,0 -1.12174,-0.31487 -1.15126,-0.89542h-1.36774c0,1.22014 0.60023,2.13524 2.48948,2.13524c1.82037,0 2.57804,-0.73799 2.57804,-2.48948c0,-1.51533 -0.83639,-1.86957 -1.71213,-2.00733c-1.15126,-0.17712 -1.90893,-0.0984 -1.90893,-1.05286c0,-0.71831 0.30503,-0.95446 1.05286,-0.95446c0.65927,0 0.99382,0.18696 1.03318,0.82655z" data-paper-data="{&quot;glyphName&quot;:&quot;S&quot;,&quot;glyphIndex&quot;:0,&quot;firstGlyphOfWord&quot;:true,&quot;word&quot;:1}" id="element-id-97593"></path>
                <path d="M178.47673,345.8096v7.57667h1.38742v-2.3222h0.52151c1.80069,0 2.68627,-0.72815 2.68627,-2.29268v-0.69863c0,-1.60389 -0.85607,-2.26316 -2.68627,-2.26316zM179.85431,349.75537v-2.70595h0.55103c1.05286,0 1.28902,0.37391 1.28902,1.09222v0.56087c0,0.71831 -0.32471,1.05286 -1.3087,1.05286z" data-paper-data="{&quot;glyphName&quot;:&quot;P&quot;,&quot;glyphIndex&quot;:1,&quot;word&quot;:1}" id="element-id-97648"></path>
                <path d="M191.17339,353.38627l-1.66293,-2.88307c0.9151,-0.29519 1.3087,-0.90526 1.3087,-2.02701v-0.39359c0,-1.60389 -0.85607,-2.273 -2.68627,-2.273h-1.90893v7.57667h1.3579v-2.66659h0.50183l1.50549,2.66659zM187.57202,349.47002v-2.41076h0.58055c1.05286,0 1.23982,0.37391 1.23982,1.09222v0.25584c0,0.71831 -0.27552,1.0627 -1.2595,1.0627z" data-paper-data="{&quot;glyphName&quot;:&quot;R&quot;,&quot;glyphIndex&quot;:2,&quot;word&quot;:1}" id="element-id-6197"></path>
                <path d="M194.11878,345.8096v7.58651h4.4968v-1.23982h-3.13891v-1.99749h2.55836v-1.22014h-2.55836v-1.94829h3.00115v-1.18078z" data-paper-data="{&quot;glyphName&quot;:&quot;E&quot;,&quot;glyphIndex&quot;:3,&quot;word&quot;:1}" id="element-id-6245"></path>
                <path d="M204.56212,345.81944h-1.34806l-2.09588,7.56683h1.39726l0.39359,-1.33822h1.93845l0.38375,1.33822h1.39726zM203.24359,350.71967l0.62975,-2.80435l0.62975,2.80435z" data-paper-data="{&quot;glyphName&quot;:&quot;A&quot;,&quot;glyphIndex&quot;:4,&quot;word&quot;:1}" id="element-id-54244"></path>
                <path d="M209.46564,345.8096v7.57667h2.48948c1.80069,0 2.58788,-0.65927 2.58788,-2.2238v-3.08971c0,-1.60389 -0.75767,-2.26316 -2.58788,-2.26316zM210.8137,352.15629v-5.10687h1.1611c1.05286,0 1.2103,0.37391 1.2103,1.09222v2.95195c0,0.71831 -0.246,1.0627 -1.22998,1.0627z" data-paper-data="{&quot;glyphName&quot;:&quot;D&quot;,&quot;glyphIndex&quot;:5,&quot;word&quot;:1}" id="element-id-92454"></path>
                <path d="M219.17099,345.81944h-1.36774v7.57667h1.36774z" data-paper-data="{&quot;glyphName&quot;:&quot;I&quot;,&quot;glyphIndex&quot;:6,&quot;word&quot;:1}" id="element-id-21501"></path>
                <path d="M227.36101,345.81944h-1.34806v1.79085l0.1476,3.19795l-2.2238,-4.98879h-1.34806v7.56683h1.34806v-1.92861l-0.11808,-2.87323l2.2238,4.80184h1.31854z" data-paper-data="{&quot;glyphName&quot;:&quot;N&quot;,&quot;glyphIndex&quot;:7,&quot;word&quot;:1}" id="element-id-30482"></path>
                <path d="M233.21899,350.3064h1.28902v0.73799c0,0.74783 -0.34439,1.1611 -1.32838,1.1611c-0.98398,0 -1.17094,-0.41327 -1.17094,-1.13158v-2.97163c0,-0.68879 0.18696,-1.13158 1.17094,-1.13158c1.05286,0 1.22998,0.35423 1.22998,1.0627h1.3579c0,-1.62357 -0.75767,-2.26316 -2.58788,-2.26316c-1.83021,0 -2.52884,0.71831 -2.52884,2.26316v3.04051c0,1.63341 0.72815,2.35172 2.52884,2.35172c1.80069,0 2.58788,-0.71831 2.58788,-2.38124v-1.96797h-2.54852z" data-paper-data="{&quot;glyphName&quot;:&quot;G&quot;,&quot;glyphIndex&quot;:8,&quot;lastGlyphOfWord&quot;:true,&quot;word&quot;:1}" id="element-id-40816"></path>
                <path d="M247.20795,345.8096h-1.3579v5.29383c0,0.71831 -0.18696,1.13158 -0.89542,1.13158c-0.70847,0 -0.89542,-0.41327 -0.89542,-1.13158h-1.3579c0,1.56453 0.72815,2.33204 2.25332,2.33204c1.52517,0 2.25332,-0.69863 2.25332,-2.26316z" data-paper-data="{&quot;glyphName&quot;:&quot;J&quot;,&quot;glyphIndex&quot;:9,&quot;firstGlyphOfWord&quot;:true,&quot;word&quot;:2}" id="element-id-90324"></path>
                <path d="M252.95769,353.45515c1.80069,0 2.58788,-0.69863 2.58788,-2.26316v-3.20778c0,-1.60389 -0.75767,-2.26316 -2.58788,-2.26316c-1.83021,0 -2.52884,0.65927 -2.52884,2.26316v3.20778c0,1.56453 0.72815,2.26316 2.52884,2.26316zM252.95769,352.25469c-0.98398,0 -1.17094,-0.41327 -1.17094,-1.13158v-3.07003c0,-0.68879 0.18696,-1.13158 1.17094,-1.13158c1.05286,0 1.22998,0.44279 1.22998,1.13158v3.07003c0,0.71831 -0.246,1.13158 -1.22998,1.13158z" data-paper-data="{&quot;glyphName&quot;:&quot;O&quot;,&quot;glyphIndex&quot;:10,&quot;word&quot;:2}" id="element-id-78328"></path>
                <path d="M261.40355,345.8096l-0.56087,1.3579l-0.55103,1.66293l-0.55103,-1.62357l-0.59039,-1.39726h-1.46613l1.92861,4.40824v3.17827h1.34806v-3.17827l1.90893,-4.40824z" data-paper-data="{&quot;glyphName&quot;:&quot;Y&quot;,&quot;glyphIndex&quot;:11,&quot;word&quot;:2}" id="element-id-90424"></path>
                <path d="M264.65397,355c0.89542,-0.34439 1.27918,-1.0135 1.18078,-2.16476h-1.14142c0,0.69863 0.11808,1.07254 -0.44279,1.48581z" data-paper-data="{&quot;glyphName&quot;:&quot;,&quot;,&quot;glyphIndex&quot;:12,&quot;lastGlyphOfWord&quot;:true,&quot;word&quot;:2}" id="element-id-11782"></path>
                <path d="M277.21616,351.04439c0,0.74783 -0.246,1.1611 -1.22998,1.1611c-0.98398,0 -1.17094,-0.41327 -1.17094,-1.13158v-2.94211c0,-0.71831 0.18696,-1.13158 1.17094,-1.13158c1.05286,0 1.22998,0.41327 1.22998,1.15126h1.3579c0,-1.68261 -0.75767,-2.35172 -2.58788,-2.35172c-1.83021,0 -2.52884,0.65927 -2.52884,2.26316v3.07987c0,1.56453 0.72815,2.26316 2.52884,2.26316c1.80069,0 2.58788,-0.69863 2.58788,-2.36156z" data-paper-data="{&quot;glyphName&quot;:&quot;C&quot;,&quot;glyphIndex&quot;:13,&quot;firstGlyphOfWord&quot;:true,&quot;word&quot;:3}" id="element-id-34227"></path>
                <path d="M286.69519,353.38627l-1.66293,-2.88307c0.9151,-0.29519 1.3087,-0.90526 1.3087,-2.02701v-0.39359c0,-1.60389 -0.85607,-2.273 -2.68627,-2.273h-1.90893v7.57667h1.3579v-2.66659h0.50183l1.50549,2.66659zM283.09381,349.47002v-2.41076h0.58055c1.05286,0 1.23982,0.37391 1.23982,1.09222v0.25584c0,0.71831 -0.27552,1.0627 -1.2595,1.0627z" data-paper-data="{&quot;glyphName&quot;:&quot;R&quot;,&quot;glyphIndex&quot;:14,&quot;word&quot;:3}" id="element-id-91032"></path>
                <path d="M289.64058,345.8096v7.58651h4.4968v-1.23982h-3.13891v-1.99749h2.55836v-1.22014h-2.55836v-1.94829h3.00115v-1.18078z" data-paper-data="{&quot;glyphName&quot;:&quot;E&quot;,&quot;glyphIndex&quot;:15,&quot;word&quot;:3}" id="element-id-91033"></path>
                <path d="M300.08392,345.81944h-1.34806l-2.09588,7.56683h1.39726l0.39359,-1.33822h1.93845l0.38375,1.33822h1.39726zM298.76538,350.71967l0.62975,-2.80435l0.62975,2.80435z" data-paper-data="{&quot;glyphName&quot;:&quot;A&quot;,&quot;glyphIndex&quot;:16,&quot;word&quot;:3}" id="element-id-38150"></path>
                <path d="M308.85449,345.83912h-4.48696v1.2103h1.57437v6.33685h1.34806v-6.33685h1.56453z" data-paper-data="{&quot;glyphName&quot;:&quot;T&quot;,&quot;glyphIndex&quot;:17,&quot;word&quot;:3}" id="element-id-5945"></path>
                <path d="M313.0397,345.81944h-1.36774v7.57667h1.36774z" data-paper-data="{&quot;glyphName&quot;:&quot;I&quot;,&quot;glyphIndex&quot;:18,&quot;word&quot;:3}" id="element-id-79274"></path>
                <path d="M321.22972,345.81944h-1.34806v1.79085l0.1476,3.19795l-2.2238,-4.98879h-1.34806v7.56683h1.34806v-1.92861l-0.11808,-2.87323l2.2238,4.80184h1.31854z" data-paper-data="{&quot;glyphName&quot;:&quot;N&quot;,&quot;glyphIndex&quot;:19,&quot;word&quot;:3}" id="element-id-22197"></path>
                <path d="M327.0877,350.3064h1.28902v0.73799c0,0.74783 -0.34439,1.1611 -1.32838,1.1611c-0.98398,0 -1.17094,-0.41327 -1.17094,-1.13158v-2.97163c0,-0.68879 0.18696,-1.13158 1.17094,-1.13158c1.05286,0 1.22998,0.35423 1.22998,1.0627h1.3579c0,-1.62357 -0.75767,-2.26316 -2.58788,-2.26316c-1.83021,0 -2.52884,0.71831 -2.52884,2.26316v3.04051c0,1.63341 0.72815,2.35172 2.52884,2.35172c1.80069,0 2.58788,-0.71831 2.58788,-2.38124v-1.96797h-2.54852z" data-paper-data="{&quot;glyphName&quot;:&quot;G&quot;,&quot;glyphIndex&quot;:20,&quot;lastGlyphOfWord&quot;:true,&quot;word&quot;:3}" id="element-id-19891"></path>
                <path d="M340.43707,351.59542l1.50549,-3.05035l-0.15744,2.16476v2.67643h1.3579v-7.57667h-1.3087l-1.55469,3.35538l-1.54485,-3.35538h-1.3087v7.57667h1.3579v-2.67643l-0.15744,-2.16476l1.50549,3.05035z" data-paper-data="{&quot;glyphName&quot;:&quot;M&quot;,&quot;glyphIndex&quot;:21,&quot;firstGlyphOfWord&quot;:true,&quot;word&quot;:4}" id="element-id-69931"></path>
                <path d="M346.56072,345.8096v7.58651h4.4968v-1.23982h-3.13891v-1.99749h2.55836v-1.22014h-2.55836v-1.94829h3.00115v-1.18078z" data-paper-data="{&quot;glyphName&quot;:&quot;E&quot;,&quot;glyphIndex&quot;:22,&quot;word&quot;:4}" id="element-id-17857"></path>
                <path d="M357.17134,351.59542l1.50549,-3.05035l-0.15744,2.16476v2.67643h1.3579v-7.57667h-1.3087l-1.55469,3.35538l-1.54485,-3.35538h-1.3087v7.57667h1.3579v-2.67643l-0.15744,-2.16476l1.50549,3.05035z" data-paper-data="{&quot;glyphName&quot;:&quot;M&quot;,&quot;glyphIndex&quot;:23,&quot;word&quot;:4}" id="element-id-71287"></path>
                <path d="M365.71559,353.45515c1.80069,0 2.58788,-0.69863 2.58788,-2.26316v-3.20778c0,-1.60389 -0.75767,-2.26316 -2.58788,-2.26316c-1.83021,0 -2.52884,0.65927 -2.52884,2.26316v3.20778c0,1.56453 0.72815,2.26316 2.52884,2.26316zM365.71559,352.25469c-0.98398,0 -1.17094,-0.41327 -1.17094,-1.13158v-3.07003c0,-0.68879 0.18696,-1.13158 1.17094,-1.13158c1.05286,0 1.22998,0.44279 1.22998,1.13158v3.07003c0,0.71831 -0.246,1.13158 -1.22998,1.13158z" data-paper-data="{&quot;glyphName&quot;:&quot;O&quot;,&quot;glyphIndex&quot;:24,&quot;word&quot;:4}" id="element-id-69284"></path>
                <path d="M376.60173,353.38627l-1.66293,-2.88307c0.9151,-0.29519 1.3087,-0.90526 1.3087,-2.02701v-0.39359c0,-1.60389 -0.85607,-2.273 -2.68627,-2.273h-1.90893v7.57667h1.3579v-2.66659h0.50183l1.50549,2.66659zM373.00035,349.47002v-2.41076h0.58055c1.05286,0 1.23982,0.37391 1.23982,1.09222v0.25584c0,0.71831 -0.27552,1.0627 -1.2595,1.0627z" data-paper-data="{&quot;glyphName&quot;:&quot;R&quot;,&quot;glyphIndex&quot;:25,&quot;word&quot;:4}" id="element-id-33782"></path>
                <path d="M382.22355,345.8096l-0.56087,1.3579l-0.55103,1.66293l-0.55103,-1.62357l-0.59039,-1.39726h-1.46613l1.92861,4.40824v3.17827h1.34806v-3.17827l1.90893,-4.40824z" data-paper-data="{&quot;glyphName&quot;:&quot;Y&quot;,&quot;glyphIndex&quot;:26,&quot;lastGlyphOfWord&quot;:true,&quot;word&quot;:4}" id="element-id-3066"></path>
            </g>
            <g data-paper-data="{&quot;isPrimaryText&quot;:true}" fill-rule="nonzero" id="element-id-46358">
                <path d="M177.44481,305.0952l15.28335,-28.65628h-7.99546l-10.89646,21.5099l-10.89646,-21.5099h-7.99546l15.28335,28.65628v20.8731h7.21714z" data-paper-data="{&quot;glyphName&quot;:&quot;Y&quot;,&quot;glyphIndex&quot;:0,&quot;firstGlyphOfWord&quot;:true,&quot;word&quot;:1}" id="element-id-67301"></path>
                <path d="M246.25527,313.58595l5.09445,12.38234h7.64168l-20.94385,-50.44921l-20.94385,50.44921h7.64168l5.09445,-12.38234zM243.84956,307.21789h-11.60403l5.80201,-14.78806z" data-paper-data="{&quot;glyphName&quot;:&quot;A&quot;,&quot;glyphIndex&quot;:1,&quot;word&quot;:1}" id="element-id-11500"></path>
                <path d="M313.86287,308.27923c3.96235,-2.05193 8.27848,-7.21714 8.27848,-14.29276c0,-10.1889 -8.06621,-17.54755 -18.6089,-17.54755h-16.06167v49.52938h7.28789v-14.50503h8.77378c7.21714,0 11.25024,7.00487 11.25024,12.4531v2.05193h7.35865v-2.05193c0,-5.94353 -2.12269,-12.09932 -8.27848,-15.63713zM314.64119,293.98647c0,5.51899 -4.38689,11.10873 -10.25966,11.10873h-9.62285v-22.28822h9.62285c5.87277,0 10.25966,5.44823 10.25966,11.17949z" data-paper-data="{&quot;glyphName&quot;:&quot;R&quot;,&quot;glyphIndex&quot;:2,&quot;word&quot;:1}" id="element-id-25305"></path>
                <path d="M360.95116,319.60023v-36.79325h9.26907c10.04739,0 17.33528,8.27848 17.33528,18.39663c0,10.11814 -7.21714,18.39663 -17.33528,18.39663zM353.73402,325.9683h17.33528c13.65596,0 23.98637,-11.10873 23.98637,-24.76469c0,-13.65596 -10.68419,-24.76469 -23.98637,-24.76469h-17.33528z" data-paper-data="{&quot;glyphName&quot;:&quot;D&quot;,&quot;glyphIndex&quot;:3,&quot;lastGlyphOfWord&quot;:true,&quot;word&quot;:1}" id="element-id-50466"></path>
            </g>
            <g data-paper-data="{&quot;fillRule&quot;:&quot;evenodd&quot;,&quot;fillRuleOriginal&quot;:&quot;evenodd&quot;,&quot;isIcon&quot;:true,&quot;iconStyle&quot;:&quot;standalone&quot;,&quot;selectedEffects&quot;:{&quot;container&quot;:&quot;&quot;,&quot;transformation&quot;:&quot;&quot;,&quot;pattern&quot;:&quot;&quot;},&quot;bounds&quot;:{&quot;x&quot;:213.59155508925014,&quot;y&quot;:115,&quot;width&quot;:122.8168898214997,&quot;height&quot;:121.77088224306297},&quot;iconType&quot;:&quot;icon&quot;,&quot;rawIconId&quot;:&quot;14334a0e-8456-4d5a-bf9c-5ad7d202cb8f&quot;,&quot;isDetailed&quot;:false,&quot;suitableAsStandaloneIcon&quot;:true}" fill-rule="evenodd" id="element-id-6025">
                <g data-paper-data="{&quot;isPathIcon&quot;:true}" id="element-id-82093">
                    <path d="M274.477,115c-33.62624,0 -60.88544,27.2592 -60.88544,60.88544c0,33.62624 27.2592,60.88544 60.88544,60.88544c14.1801,0 27.2292,-4.84804 37.57827,-12.97709c-7.88206,4.38803 -16.95812,6.88805 -26.61919,6.88805c-30.26322,0 -54.7974,-24.53318 -54.7974,-54.7964c0,-30.26322 24.53418,-54.7974 54.7974,-54.7974c9.66107,0 18.73714,2.50002 26.61919,6.88905c-10.34907,-8.12906 -23.39817,-12.97709 -37.57827,-12.97709z" id="element-id-96349"></path>
                    <path d="M287.70109,224.59379c26.90019,0 48.70735,-21.80716 48.70735,-48.70835c0,-26.90119 -21.80716,-48.70835 -48.70735,-48.70835c-11.34508,0 -21.78416,3.87803 -30.06322,10.38208c6.30505,-3.51103 13.5671,-5.51104 21.29515,-5.51104c24.21118,0 43.83732,19.62614 43.83732,43.83732c0,24.21018 -19.62614,43.83732 -43.83732,43.83732c-7.72806,0 -14.99011,-2.00001 -21.29515,-5.51104c8.27906,6.50305 18.71814,10.38208 30.06322,10.38208z" id="element-id-4017"></path>
                    <path d="M285.99108,151.05726c1.50201,-2.68802 4.82303,-3.63703 7.51105,-2.13502c2.68902,1.50301 3.63803,4.82403 2.13502,7.51205l-15.10211,27.2002v14.3911c0,3.08402 -2.45102,5.53504 -5.53504,5.53504c-3.08402,0 -5.53504,-2.45102 -5.53504,-5.53504v-14.3911l-15.10211,-27.2002c-1.50301,-2.68802 -0.554,-6.00904 2.13502,-7.51205c2.68802,-1.50201 6.00904,-0.553 7.51105,2.13502l10.99108,19.76814z" id="element-id-32094"></path>
                </g>
            </g>
        </g>
    </g>
    <!-- <g class="watermark-group" style="opacity:0.040000010281801224">
        <path class="watermark-path" d="M129.52,370.3a11.88,11.88,0,0,1,2.58,5.58,12,12,0,0,1,.11,3,11.81,11.81,0,0,1-.64,2.93,12.34,12.34,0,0,1-1.41,2.72,11.65,11.65,0,0,1-2.13,2.32,12,12,0,0,1-2.64,1.69,13,13,0,0,1-2.91.9,12.47,12.47,0,0,1-3,.12,12.17,12.17,0,0,1-2.93-.64,11.8,11.8,0,0,1-2.72-1.38,12.19,12.19,0,0,1-4-4.79,11.85,11.85,0,0,1-.89-2.92,12.14,12.14,0,0,1-.13-3,11.54,11.54,0,0,1,.64-2.92,11.67,11.67,0,0,1,3.5-5,11.44,11.44,0,0,1,2.67-1.69,11.64,11.64,0,0,1,2.92-.91,10.71,10.71,0,0,1,3-.12,11.68,11.68,0,0,1,5.66,2,11.7,11.7,0,0,1,2.34,2.12m-1.4,8.76a13,13,0,0,1-1.22,2.32,9.68,9.68,0,0,1-1.81,2,7.44,7.44,0,0,1-2.38,1.37,6.17,6.17,0,0,1-5.11-.46,8.73,8.73,0,0,1-3.85-4.58,6.69,6.69,0,0,1-.34-2.66,6.09,6.09,0,0,1,.77-2.47,7.15,7.15,0,0,1,1.75-2.11,9.58,9.58,0,0,1,1.09-.81,8.23,8.23,0,0,1,1.12-.63,8.14,8.14,0,0,1,1.19-.46,12.71,12.71,0,0,1,1.32-.37l2,2.38a12.83,12.83,0,0,0-1.56.17,7.86,7.86,0,0,0-1.23.32,4.5,4.5,0,0,0-1,.49,6.41,6.41,0,0,0-.93.67,4.49,4.49,0,0,0-1.15,1.39,3.87,3.87,0,0,0-.45,1.58,4.12,4.12,0,0,0,.26,1.63,6.11,6.11,0,0,0,2.36,2.82,4.43,4.43,0,0,0,1.57.53,3.91,3.91,0,0,0,1.62-.17,4.71,4.71,0,0,0,1.57-.89,10.5,10.5,0,0,0,.83-.79,5.71,5.71,0,0,0,.65-.93,10.13,10.13,0,0,0,.54-1.14,12.24,12.24,0,0,0,.44-1.49l2,2.33m-14.46,4.55a8.86,8.86,0,0,0,2.78,2.22,9,9,0,0,0,3.29.94,9.15,9.15,0,0,0,3.39-.37,8.68,8.68,0,0,0,3.11-1.69,8.8,8.8,0,0,0,2.22-2.78,9.15,9.15,0,0,0,1-3.29,8.95,8.95,0,0,0-4.83-8.76,9,9,0,0,0-6.73-.57,9,9,0,0,0-5.33,4.47,8.94,8.94,0,0,0-.57,6.71,8.76,8.76,0,0,0,1.7,3.12"></path>
        <path class="watermark-path" d="M147,349c-.48.12-1.09.31-1.82.57a24.37,24.37,0,0,0-2.4,1A28.35,28.35,0,0,0,140,352a20.72,20.72,0,0,0-2.71,1.94c-.7.59-1.28,1.11-1.74,1.57a15.07,15.07,0,0,0-1.1,1.22,4.09,4.09,0,0,0-.59.92,2.32,2.32,0,0,0-.22.64,1.16,1.16,0,0,0,0,.47,1.83,1.83,0,0,0,.18.29,1.15,1.15,0,0,0,1,.37,5.54,5.54,0,0,0,1.51-.38q.87-.35,1.95-.9l2.26-1.18q1.2-.65,2.49-1.29c.87-.44,1.73-.83,2.59-1.17a18.94,18.94,0,0,1,2.6-.81,9.27,9.27,0,0,1,2.46-.29,6.25,6.25,0,0,1,2.24.49,5.12,5.12,0,0,1,1.89,1.47,6.35,6.35,0,0,1,1.41,2.61,6,6,0,0,1,.09,2.6,8.3,8.3,0,0,1-.9,2.52,17.79,17.79,0,0,1-1.62,2.37,23.92,23.92,0,0,1-2,2.15c-.72.67-1.41,1.29-2.09,1.87a33.79,33.79,0,0,1-5.33,3.7,32.29,32.29,0,0,1-4.91,2.28l-3.61-4.3a21.38,21.38,0,0,0,5.39-1.87,27.2,27.2,0,0,0,5.4-3.56,21.59,21.59,0,0,0,2.38-2.27,8.67,8.67,0,0,0,1.18-1.7,2.32,2.32,0,0,0,.27-1.19,1.34,1.34,0,0,0-.28-.74,1.21,1.21,0,0,0-1-.42,4.32,4.32,0,0,0-1.55.34,15.77,15.77,0,0,0-2,.88c-.72.37-1.48.77-2.27,1.21l-2.45,1.3c-.85.45-1.7.85-2.56,1.21a22.37,22.37,0,0,1-2.54.86,10,10,0,0,1-2.43.32,5.76,5.76,0,0,1-2.2-.45,5,5,0,0,1-1.89-1.45,6.12,6.12,0,0,1-1.31-2.41,6,6,0,0,1-.1-2.41,8.28,8.28,0,0,1,.81-2.38,14.06,14.06,0,0,1,1.49-2.24,22.37,22.37,0,0,1,1.85-2.05q1-1,2-1.77c.7-.59,1.44-1.15,2.23-1.7s1.62-1.06,2.44-1.53,1.63-.91,2.43-1.3,1.58-.75,2.3-1L147,349"></path>
        <path class="watermark-path" d="M186.76,337.57l-10.6-12.63,3.92,18.24-4.66,3.91-17.27-7,10.6,12.63-4.86,4.07-15.09-18,6.59-5.54,18.69,7.52-4.15-19.71,6.57-5.52,15.09,18-4.83,4.05"></path>
        <path class="watermark-path" d="M208.84,313.24l-10,8.42,1.16,4.82L194.56,331l-5.68-25.89,5.42-4.55,24.51,10.09-5.42,4.55-4.55-2m-11.23,3.45,6.57-5.52-8.83-3.87,2.26,9.39"></path>
        <path class="watermark-path" d="M227.49,281.38c-.48.12-1.09.31-1.82.57a24.37,24.37,0,0,0-2.4,1,26.11,26.11,0,0,0-2.7,1.47,20.72,20.72,0,0,0-2.71,1.94c-.7.59-1.28,1.11-1.74,1.57a13.39,13.39,0,0,0-1.1,1.22,4.29,4.29,0,0,0-.59.91,2.48,2.48,0,0,0-.22.65,1.16,1.16,0,0,0,0,.47,1.83,1.83,0,0,0,.18.29,1.15,1.15,0,0,0,1,.37,5.54,5.54,0,0,0,1.51-.38q.87-.34,2-.9l2.26-1.18q1.2-.64,2.49-1.29c.87-.44,1.73-.83,2.59-1.17a18.94,18.94,0,0,1,2.6-.81,9.27,9.27,0,0,1,2.46-.29,6.08,6.08,0,0,1,2.24.49,5.09,5.09,0,0,1,1.89,1.46,6.47,6.47,0,0,1,1.41,2.61,6.07,6.07,0,0,1,.09,2.61,8.3,8.3,0,0,1-.9,2.52,16.32,16.32,0,0,1-1.63,2.36,21.41,21.41,0,0,1-2,2.16c-.72.67-1.41,1.29-2.1,1.86a33.36,33.36,0,0,1-5.32,3.71,31.92,31.92,0,0,1-4.92,2.28l-3.6-4.3a21.38,21.38,0,0,0,5.39-1.87,27.2,27.2,0,0,0,5.4-3.56,21.59,21.59,0,0,0,2.38-2.27,8.67,8.67,0,0,0,1.18-1.7A2.32,2.32,0,0,0,231,293a1.34,1.34,0,0,0-.28-.74,1.21,1.21,0,0,0-1-.42,4.32,4.32,0,0,0-1.55.34,16.54,16.54,0,0,0-2,.88c-.71.37-1.47.77-2.26,1.21l-2.46,1.3c-.84.44-1.7.85-2.55,1.21a24.53,24.53,0,0,1-2.54.86A10,10,0,0,1,214,298a5.76,5.76,0,0,1-2.2-.45,5,5,0,0,1-1.89-1.45,6.12,6.12,0,0,1-1.31-2.41,5.78,5.78,0,0,1-.1-2.41,8,8,0,0,1,.81-2.38,14.61,14.61,0,0,1,1.49-2.25,22.26,22.26,0,0,1,1.85-2q1-1,2-1.77c.7-.59,1.44-1.15,2.23-1.7s1.62-1.06,2.44-1.53,1.63-.91,2.43-1.31,1.58-.74,2.3-1l3.5,4.16"></path>
        <path class="watermark-path" d="M261.64,274.74l-6.29-7.5L243,277.61l6.3,7.5-4.86,4.07-15.09-18,4.85-4.08,5.49,6.55L252,263.3l-5.49-6.55,4.86-4.07,15.09,18-4.86,4.08"></path>
        <path class="watermark-path" d="M272.18,265.9l-15.09-18,4.86-4.08,15.09,18-4.86,4.08"></path>
        <path class="watermark-path" d="M299.65,242.85l-22.51-2.18L287.51,253l-4.85,4.08-15.1-18,5.28-4.43,22.56,2.22L285,224.5l4.83-4.06,15.09,18-5.26,4.42"></path>
        <path class="watermark-path" d="M306.68,205.52a31.88,31.88,0,0,1,5.29-3.66,34.48,34.48,0,0,1,5.14-2.35l3.69,4.39a20.77,20.77,0,0,0-2.37.61,20.47,20.47,0,0,0-2.61,1,25.12,25.12,0,0,0-2.76,1.49,23.9,23.9,0,0,0-2.8,2,20.42,20.42,0,0,0-2.8,2.77,12.77,12.77,0,0,0-1.64,2.52,7,7,0,0,0-.68,2.24,6,6,0,0,0,.66,3.64,8.16,8.16,0,0,0,.94,1.38,9.12,9.12,0,0,0,1.08,1.07,6.39,6.39,0,0,0,1.47.91,6.73,6.73,0,0,0,1.88.48,6.54,6.54,0,0,0,2.28-.18,11.67,11.67,0,0,0,2.74-1.07,19.38,19.38,0,0,0,3.18-2.22c.57-.48,1.06-.92,1.46-1.31a14.57,14.57,0,0,0,1-1.13,11.46,11.46,0,0,0,.81-1.05l.74-1.09-1.82-2.17-5.45,4.57-3.31-3.94,10.31-8.65,7.71,9.19a29,29,0,0,1-1.67,2.43q-1,1.26-2.1,2.52c-.74.84-1.5,1.65-2.3,2.44s-1.58,1.5-2.33,2.14a31,31,0,0,1-3.59,2.61,22.55,22.55,0,0,1-3.64,1.83,15.64,15.64,0,0,1-3.63.89,10.72,10.72,0,0,1-3.49-.15,10.45,10.45,0,0,1-3.28-1.33,12.54,12.54,0,0,1-3-2.67,12,12,0,0,1-2.08-3.44,10.45,10.45,0,0,1-.71-3.5,11.14,11.14,0,0,1,.51-3.51,15.72,15.72,0,0,1,1.56-3.43,21.62,21.62,0,0,1,2.42-3.28,30.3,30.3,0,0,1,3.15-3"></path>
        <path class="watermark-path" d="M336.91,211.59l-15.1-18,4.86-4.08,11.79,14,13.13-11,3.31,3.94-18,15.1"></path>
        <path class="watermark-path" d="M374.54,164.71a12.28,12.28,0,0,1,2.59,4.81,10.44,10.44,0,0,1,0,5,14.62,14.62,0,0,1-2.33,5,25.55,25.55,0,0,1-4.56,4.85,26.07,26.07,0,0,1-5.6,3.67,14.79,14.79,0,0,1-5.38,1.43,10.43,10.43,0,0,1-4.94-.89,13.24,13.24,0,0,1-6.87-8.18,10.48,10.48,0,0,1,0-5,14.51,14.51,0,0,1,2.36-5,25.23,25.23,0,0,1,4.57-4.89,25,25,0,0,1,5.59-3.64,14.45,14.45,0,0,1,5.35-1.43,10.31,10.31,0,0,1,4.93.92,12.22,12.22,0,0,1,4.28,3.38m-4.91,4.11a8.36,8.36,0,0,0-2-1.72,5.5,5.5,0,0,0-2.65-.85,7.72,7.72,0,0,0-3.32.57,14.49,14.49,0,0,0-4,2.52,16.72,16.72,0,0,0-2.38,2.4,10.15,10.15,0,0,0-1.39,2.24,6.71,6.71,0,0,0-.56,2.1,5.69,5.69,0,0,0,.1,1.9,6.21,6.21,0,0,0,.61,1.69,9.85,9.85,0,0,0,1,1.44,10.48,10.48,0,0,0,1.26,1.23,6.67,6.67,0,0,0,1.57.92,6.1,6.1,0,0,0,1.85.41,6.8,6.8,0,0,0,2.15-.2,11.06,11.06,0,0,0,2.45-1,17.67,17.67,0,0,0,2.77-1.94,14.39,14.39,0,0,0,3.18-3.52,7.74,7.74,0,0,0,1.14-3.17,5.54,5.54,0,0,0-.37-2.74,8.52,8.52,0,0,0-1.36-2.3"></path>
        <path class="watermark-path" d="M382.66,141.76A32.3,32.3,0,0,1,388,138.1a34.12,34.12,0,0,1,5.15-2.35l3.69,4.4a19.62,19.62,0,0,0-2.37.6,22.08,22.08,0,0,0-2.61,1,26,26,0,0,0-2.77,1.49,23.9,23.9,0,0,0-2.8,2,21,21,0,0,0-2.8,2.78,13.19,13.19,0,0,0-1.64,2.51,7.29,7.29,0,0,0-.68,2.24,6.36,6.36,0,0,0,.06,2,5.8,5.8,0,0,0,.61,1.68,8.12,8.12,0,0,0,.93,1.38,9.16,9.16,0,0,0,1.08,1.08,6.56,6.56,0,0,0,1.48.9,6,6,0,0,0,1.87.48,6.76,6.76,0,0,0,2.28-.17,12,12,0,0,0,2.74-1.08,18.57,18.57,0,0,0,3.18-2.22c.58-.48,1.06-.92,1.46-1.31s.75-.77,1.05-1.12.57-.72.81-1.06l.73-1.09-1.82-2.17-5.45,4.57-3.3-3.94,10.3-8.65,7.71,9.19a29,29,0,0,1-1.67,2.43q-1,1.26-2.1,2.52c-.73.84-1.5,1.66-2.3,2.44s-1.57,1.5-2.33,2.14a31,31,0,0,1-3.59,2.61,22.15,22.15,0,0,1-3.64,1.83,15.56,15.56,0,0,1-3.62.89,11,11,0,0,1-3.49-.14,10.84,10.84,0,0,1-3.28-1.33,12.82,12.82,0,0,1-3-2.68,12.12,12.12,0,0,1-2.08-3.43A10.71,10.71,0,0,1,375,155a11.18,11.18,0,0,1,.51-3.51,15.51,15.51,0,0,1,1.57-3.43,21.44,21.44,0,0,1,2.42-3.28,30.19,30.19,0,0,1,3.14-3"></path>
        <path class="watermark-path" d="M428.63,119.31a12.26,12.26,0,0,1,2.59,4.82,10.44,10.44,0,0,1,0,5,14.53,14.53,0,0,1-2.34,5,25.29,25.29,0,0,1-4.56,4.86,26,26,0,0,1-5.59,3.67,14.84,14.84,0,0,1-5.38,1.43,10.61,10.61,0,0,1-4.95-.89,12.15,12.15,0,0,1-4.3-3.37,12,12,0,0,1-2.56-4.81,10.48,10.48,0,0,1,0-5,14.39,14.39,0,0,1,2.35-5,27.89,27.89,0,0,1,10.16-8.53,14.49,14.49,0,0,1,5.36-1.43,10.27,10.27,0,0,1,4.92.92,12.21,12.21,0,0,1,4.28,3.37m-4.91,4.12a8.17,8.17,0,0,0-2-1.72,5.58,5.58,0,0,0-2.65-.86,7.86,7.86,0,0,0-3.31.58,14.49,14.49,0,0,0-4,2.52,16.21,16.21,0,0,0-2.38,2.4,9.85,9.85,0,0,0-1.4,2.24,7,7,0,0,0-.56,2.1,6,6,0,0,0,.1,1.9,6.23,6.23,0,0,0,.62,1.69,8.49,8.49,0,0,0,1,1.44,9.18,9.18,0,0,0,1.26,1.23,6.67,6.67,0,0,0,1.57.92,6,6,0,0,0,1.84.41,6.86,6.86,0,0,0,2.16-.2,11.26,11.26,0,0,0,2.45-1,17.62,17.62,0,0,0,2.76-1.94,14.67,14.67,0,0,0,3.19-3.52,7.71,7.71,0,0,0,1.13-3.17,5.53,5.53,0,0,0-.36-2.74,8.55,8.55,0,0,0-1.37-2.3"></path>
    </g>
    <rect data-element-id="element-id-6025" stroke-width="2" fill="transparent" class="invisible-element-box grouping-element" x="214" y="115" width="123" height="122" data-element-name="isIcon"></rect>
    <rect data-element-id="element-id-82093" stroke-width="2" fill="transparent" class="invisible-element-box individual-element" x="214" y="115" width="123" height="122"></rect>
    <rect data-element-id="element-id-46358" stroke-width="2" fill="transparent" class="invisible-element-box grouping-element" x="155" y="276" width="240" height="50" data-element-name="isPrimaryText"></rect>
    <rect data-element-id="element-id-96349" stroke-width="2" fill="transparent" class="invisible-element-box individual-element" x="214" y="115" width="98" height="122"></rect>
    <rect data-element-id="element-id-4017" stroke-width="2" fill="transparent" class="invisible-element-box individual-element" x="258" y="127" width="79" height="97"></rect>
    <rect data-element-id="element-id-32094" stroke-width="2" fill="transparent" class="invisible-element-box individual-element" x="254" y="148" width="43" height="55"></rect>
    <rect data-element-id="element-id-11500" stroke-width="2" fill="transparent" class="invisible-element-box individual-element" x="217" y="276" width="42" height="50"></rect>
    <rect data-element-id="element-id-50466" stroke-width="2" fill="transparent" class="invisible-element-box individual-element" x="354" y="276" width="41" height="50"></rect>
    <rect data-element-id="element-id-48586" stroke-width="2" fill="transparent" class="invisible-element-box grouping-element" x="170" y="346" width="213" height="9" data-element-name="isSecondaryText"></rect>
    <rect data-element-id="element-id-67301" stroke-width="2" fill="transparent" class="invisible-element-box individual-element" x="155" y="276" width="38" height="50"></rect>
    <rect data-element-id="element-id-25305" stroke-width="2" fill="transparent" class="invisible-element-box individual-element" x="287" y="276" width="35" height="50"></rect>
    <rect data-element-id="element-id-54244" stroke-width="2" fill="transparent" class="invisible-element-box individual-element" x="201" y="346" width="6" height="8"></rect>
    <rect data-element-id="element-id-38150" stroke-width="2" fill="transparent" class="invisible-element-box individual-element" x="297" y="346" width="6" height="8"></rect>
    <rect data-element-id="element-id-69931" stroke-width="2" fill="transparent" class="invisible-element-box individual-element" x="337" y="346" width="6" height="8"></rect>
    <rect data-element-id="element-id-71287" stroke-width="2" fill="transparent" class="invisible-element-box individual-element" x="354" y="346" width="6" height="8"></rect>
    <rect data-element-id="element-id-97593" stroke-width="2" fill="transparent" class="invisible-element-box individual-element" x="170" y="346" width="5" height="8"></rect>
    <rect data-element-id="element-id-97648" stroke-width="2" fill="transparent" class="invisible-element-box individual-element" x="178" y="346" width="5" height="8"></rect>
    <rect data-element-id="element-id-6197" stroke-width="2" fill="transparent" class="invisible-element-box individual-element" x="186" y="346" width="5" height="8"></rect>
    <rect data-element-id="element-id-92454" stroke-width="2" fill="transparent" class="invisible-element-box individual-element" x="209" y="346" width="5" height="8"></rect>
    <rect data-element-id="element-id-30482" stroke-width="2" fill="transparent" class="invisible-element-box individual-element" x="223" y="346" width="5" height="8"></rect>
    <rect data-element-id="element-id-40816" stroke-width="2" fill="transparent" class="invisible-element-box individual-element" x="231" y="346" width="5" height="8"></rect>
    <rect data-element-id="element-id-90324" stroke-width="2" fill="transparent" class="invisible-element-box individual-element" x="243" y="346" width="5" height="8"></rect>
    <rect data-element-id="element-id-78328" stroke-width="2" fill="transparent" class="invisible-element-box individual-element" x="250" y="346" width="5" height="8"></rect>
    <rect data-element-id="element-id-90424" stroke-width="2" fill="transparent" class="invisible-element-box individual-element" x="258" y="346" width="5" height="8"></rect>
    <rect data-element-id="element-id-34227" stroke-width="2" fill="transparent" class="invisible-element-box individual-element" x="273" y="346" width="5" height="8"></rect>
    <rect data-element-id="element-id-91032" stroke-width="2" fill="transparent" class="invisible-element-box individual-element" x="282" y="346" width="5" height="8"></rect>
    <rect data-element-id="element-id-22197" stroke-width="2" fill="transparent" class="invisible-element-box individual-element" x="316" y="346" width="5" height="8"></rect>
    <rect data-element-id="element-id-19891" stroke-width="2" fill="transparent" class="invisible-element-box individual-element" x="325" y="346" width="5" height="8"></rect>
    <rect data-element-id="element-id-69284" stroke-width="2" fill="transparent" class="invisible-element-box individual-element" x="363" y="346" width="5" height="8"></rect>
    <rect data-element-id="element-id-33782" stroke-width="2" fill="transparent" class="invisible-element-box individual-element" x="372" y="346" width="5" height="8"></rect>
    <rect data-element-id="element-id-3066" stroke-width="2" fill="transparent" class="invisible-element-box individual-element" x="379" y="346" width="5" height="8"></rect>
    <rect data-element-id="element-id-6245" stroke-width="2" fill="transparent" class="invisible-element-box individual-element" x="194" y="346" width="4" height="8"></rect>
    <rect data-element-id="element-id-91033" stroke-width="2" fill="transparent" class="invisible-element-box individual-element" x="290" y="346" width="4" height="8"></rect>
    <rect data-element-id="element-id-5945" stroke-width="2" fill="transparent" class="invisible-element-box individual-element" x="304" y="346" width="4" height="8"></rect>
    <rect data-element-id="element-id-17857" stroke-width="2" fill="transparent" class="invisible-element-box individual-element" x="347" y="346" width="4" height="8"></rect>
    <rect data-element-id="element-id-21501" stroke-width="2" fill="transparent" class="invisible-element-box individual-element" x="218" y="346" width="1" height="8"></rect>
    <rect data-element-id="element-id-79274" stroke-width="2" fill="transparent" class="invisible-element-box individual-element" x="312" y="346" width="1" height="8"></rect>
    <rect data-element-id="element-id-11782" stroke-width="2" fill="transparent" class="invisible-element-box individual-element" x="264" y="353" width="2" height="2"></rect> -->
</svg>
